<?xml version="1.0" encoding="UTF-8"?>
<!-- The Best Svg Icon site in the world: iconSvg.co, Visit us! https://iconsvg.co -->
<svg fill="#000000" width="800px" height="800px" version="1.1" viewBox="144 144 512 512" xmlns="http://www.w3.org/2000/svg">
 <path d="m519.82 399.84-40.652-26.297c20.965-20.559 34.023-49.148 34.023-80.758 0.003907-62.414-50.781-113.2-113.2-113.2-62.418 0-113.2 50.785-113.2 113.2 0 31.609 13.059 60.203 34.023 80.762l-40.66 26.305c-27.938 18.074-44.609 48.73-44.609 82.012v122.81c0 8.6953 7.0508 15.742 15.742 15.742h297.4c8.6953 0 15.742-7.0508 15.742-15.742v-122.82c0.003906-33.281-16.668-63.938-44.613-82.02zm13.129 189.09h-265.91v-107.07c0-22.547 11.301-43.328 30.227-55.574l50.945-32.957c15.539 8.0352 33.117 12.656 51.781 12.656 18.664 0 36.246-4.6211 51.785-12.656l50.938 32.953c18.934 12.254 30.234 33.035 30.234 55.582zm-214.66-296.14c0-45.059 36.652-81.711 81.711-81.711 45.055 0 81.711 36.652 81.711 81.711 0 45.055-36.656 81.711-81.711 81.711-45.059 0-81.711-36.656-81.711-81.711z"/>
</svg>