<svg width="24" height="24" viewBox="0 0 24 24" fill="none" xmlns="http://www.w3.org/2000/svg">
<mask id="mask0_1_17146" style="mask-type:alpha" maskUnits="userSpaceOnUse" x="0" y="0" width="24" height="24">
<rect width="24" height="24" fill="#D9D9D9"/>
</mask>
<g mask="url(#mask0_1_17146)">
<path d="M6.404 21.5V12.6578C5.504 12.4244 4.795 11.9862 4.277 11.3433C3.759 10.7003 3.5 9.948 3.5 9.0865V2.5H5V8.3365H6.404V2.5H7.90375V8.3365H9.30775V2.5H10.8078V9.0865C10.8078 9.948 10.5488 10.7003 10.0308 11.3433C9.51275 11.9862 8.80375 12.4244 7.90375 12.6578V21.5H6.404ZM16.0865 21.5V12.302C15.1865 11.9955 14.4776 11.4047 13.9598 10.5297C13.4418 9.65475 13.1827 8.63142 13.1827 7.45975C13.1827 6.08525 13.5408 4.915 14.2568 3.949C14.9728 2.983 15.8327 2.5 16.8365 2.5C17.8468 2.5 18.71 2.98558 19.426 3.95675C20.142 4.92792 20.5 6.10067 20.5 7.475C20.5 8.65317 20.2394 9.67717 19.7183 10.547C19.1971 11.417 18.4865 12.002 17.5865 12.302V21.5H16.0865Z" fill="#1C1B1F"/>
</g>
</svg>
