<svg width="44" height="24" viewBox="0 0 44 24" fill="none" xmlns="http://www.w3.org/2000/svg">
<path d="M14.5 20.4375V11.1777L12.6327 12.6105L11.7307 11.4145L22 3.5625L32.2692 11.4145L31.3672 12.5953L29.5 11.1777V20.4375H14.5ZM16 18.9375H28V10.0375L22 5.4625L16 10.0375V18.9375ZM18 14.822C17.7551 14.822 17.5465 14.7358 17.374 14.5635C17.2016 14.391 17.1155 14.1823 17.1155 13.9375C17.1155 13.6927 17.2016 13.484 17.374 13.3115C17.5465 13.1392 17.7551 13.053 18 13.053C18.2448 13.053 18.4535 13.1392 18.626 13.3115C18.7983 13.484 18.8845 13.6927 18.8845 13.9375C18.8845 14.1823 18.7983 14.391 18.626 14.5635C18.4535 14.7358 18.2448 14.822 18 14.822ZM22 14.822C21.7551 14.822 21.5465 14.7358 21.374 14.5635C21.2016 14.391 21.1155 14.1823 21.1155 13.9375C21.1155 13.6927 21.2016 13.484 21.374 13.3115C21.5465 13.1392 21.7551 13.053 22 13.053C22.2448 13.053 22.4535 13.1392 22.626 13.3115C22.7983 13.484 22.8845 13.6927 22.8845 13.9375C22.8845 14.1823 22.7983 14.391 22.626 14.5635C22.4535 14.7358 22.2448 14.822 22 14.822ZM26 14.822C25.7551 14.822 25.5465 14.7358 25.374 14.5635C25.2016 14.391 25.1155 14.1823 25.1155 13.9375C25.1155 13.6927 25.2016 13.484 25.374 13.3115C25.5465 13.1392 25.7551 13.053 26 13.053C26.2448 13.053 26.4535 13.1392 26.626 13.3115C26.7983 13.484 26.8845 13.6927 26.8845 13.9375C26.8845 14.1823 26.7983 14.391 26.626 14.5635C26.4535 14.7358 26.2448 14.822 26 14.822Z" fill="black"/>
</svg>
