<?xml version="1.0" encoding="UTF-8"?> <svg xmlns="http://www.w3.org/2000/svg" width="1719" height="500" viewBox="0 0 1719 500" fill="none"> <path d="M281.565 49.5399C275.552 39.7948 267.709 31.3062 258.47 24.5428C249.127 18.1696 238.898 13.2056 228.111 9.81032C216.385 5.97623 204.278 3.4257 192.002 2.20351C177.643 0.756617 163.22 0.0530409 148.789 0.0955934H23.8727C21.0239 -0.172417 18.1503 0.124477 15.4165 0.969253C12.6827 1.81403 10.1426 3.19008 7.94164 5.0185C5.74072 6.84693 3.92232 9.09179 2.59069 11.6244C1.25906 14.157 0.440383 16.9275 0.181603 19.7771C0.181603 20.0062 0.181603 20.2124 0.181603 20.4186V224.336C17.4998 261.497 46.2608 292.137 82.2527 311.769V271.146C81.725 264.83 83.718 258.562 87.7963 253.711C91.8746 248.86 97.7068 245.82 104.019 245.255H141.549C192.674 245.255 231.685 234.563 258.584 213.178C285.483 191.793 299.139 160.022 299.551 117.864C299.598 105.746 298.175 93.6668 295.312 81.8917C292.454 70.4538 287.815 59.5365 281.565 49.5399ZM208.361 153.836C204.009 161.334 197.536 167.377 189.756 171.203C181.328 175.231 172.22 177.648 162.903 178.329C152.665 179.596 142.357 180.223 132.041 180.208H96.0687C87.4537 180.208 82.0694 173.196 82.0694 162.955V79.2568C81.9605 77.6199 82.1752 75.9775 82.7013 74.4236C83.2274 72.8697 84.0545 71.4347 85.1355 70.2006C86.2164 68.9664 87.5299 67.9574 89.0009 67.2312C90.472 66.5049 92.0717 66.0756 93.7087 65.9678C94.4706 65.8923 95.2381 65.8923 95.9999 65.9678H131.972C143.627 65.9678 154.624 66.3039 164.965 66.976C174.167 67.4218 183.198 69.6308 191.566 73.483C199.257 76.9099 205.671 82.6745 209.896 89.9568C214.733 99.7488 216.959 110.625 216.357 121.53C216.614 132.796 213.853 143.926 208.361 153.767V153.836ZM82.3443 324.095C51.5351 312.984 23.4918 295.343 0.135779 272.383V370.447C-0.119639 372.266 -0.0139871 374.117 0.446694 375.895C0.907374 377.673 1.71405 379.343 2.82058 380.809C3.92712 382.276 5.31181 383.509 6.89548 384.44C8.47915 385.37 10.2307 385.98 12.0501 386.233C12.2403 386.255 12.4326 386.255 12.6229 386.233H69.0782C84.0857 386.233 82.3214 370.194 82.3214 370.194L82.3443 324.095ZM858.308 107.003H809.597C804.949 106.693 800.341 108.039 796.591 110.803C792.841 113.567 790.192 117.57 789.113 122.102L732.521 277.905C732.521 277.905 682.549 135.85 678.815 124.898C677.757 119.825 675.001 115.265 671.002 111.97C667.003 108.675 662 106.842 656.819 106.774H611.98C595.942 106.774 595.942 119.261 598.118 124.142C600.295 129.022 661.562 297.151 685.551 361.488C689.326 369.404 691.971 377.811 693.41 386.462C691.871 395.009 688.647 403.164 683.924 410.451C682.104 413.544 680.019 416.472 677.692 419.203C723.906 405.456 777.612 355.37 804.602 301.275C831.822 226.33 867.679 126.387 869.306 121.278C871.047 113.487 871.047 107.003 858.308 107.003ZM641.216 434.646C637.031 434.528 632.855 434.192 628.706 433.638C623.597 432.882 613.859 433.638 613.859 442.39V479.852C613.859 494.218 620.847 495.226 624.467 496.234C636.035 498.758 647.843 500.011 659.683 499.969C673.679 500.336 687.572 497.475 700.283 491.606C711.928 485.705 722.255 477.506 730.642 467.502C740.177 456.612 748.242 444.518 754.631 431.53C762.024 416.621 768.61 401.324 774.358 385.706L781.621 365.841C767.118 380.184 703.17 440.512 641.216 434.532V434.646ZM567.508 151.842C564.854 145.528 561.228 139.668 556.762 134.475C552.247 129.669 547.125 125.471 541.525 121.988C535.469 117.868 529.023 114.353 522.279 111.494C515.419 108.833 508.364 106.704 501.177 105.125C492.946 103.301 484.591 102.091 476.18 101.504C466.136 100.539 456.05 100.08 445.959 100.13C371.525 100.13 329.138 123.615 318.797 170.584C318.397 172.182 318.317 173.844 318.561 175.473C318.806 177.102 319.371 178.666 320.222 180.076C321.074 181.486 322.197 182.713 323.525 183.687C324.853 184.662 326.361 185.363 327.962 185.752C328.597 185.896 329.239 186.003 329.887 186.073H375.711C388.198 186.073 388.198 182.201 392.941 171.455C395.022 165.608 398.755 160.49 403.686 156.723C415.402 149.163 429.255 145.609 443.164 146.595C456.136 145.284 469.16 148.524 480.007 155.76C488.298 163.503 493.19 174.21 493.616 185.546C493.616 201.035 488.873 211.276 469.65 211.276C424.055 209.65 375.069 214.759 347.46 230.637C333.872 238.932 322.718 250.671 315.129 264.666C307.541 278.66 303.787 294.412 304.248 310.325C303.926 322.722 306.449 335.028 311.626 346.297C316.489 356.089 323.536 364.634 332.224 371.271C341.351 378.711 351.887 384.229 363.201 387.493C375.983 390.96 389.183 392.641 402.426 392.488C420.277 392.788 438.064 390.259 455.124 384.996C470.168 378.823 484.39 370.811 497.466 361.144V369.897C497.466 378.512 500.078 386.256 509.953 386.256H563.04C573.786 386.256 576.283 378.626 576.283 369.141V205.548C576.353 195.351 575.641 185.163 574.152 175.075C572.934 167.08 570.701 159.273 567.508 151.842ZM494.899 312.479C494.899 312.479 481.152 341.211 432.441 341.211C420.756 341.74 409.206 338.53 399.471 332.046C395.179 328.717 391.788 324.367 389.607 319.393C387.426 314.419 386.524 308.978 386.983 303.566C386.449 296.298 388.134 289.04 391.817 282.751C395.499 276.462 401.005 271.441 407.604 268.35C427.317 260.764 448.358 257.234 469.467 257.971C472.404 257.529 475.399 257.669 478.281 258.384C481.163 259.1 483.877 260.375 486.266 262.139C488.655 263.903 490.674 266.12 492.206 268.664C493.739 271.208 494.755 274.029 495.197 276.965C495.374 278.125 495.458 279.297 495.449 280.471L494.899 312.479Z" fill="#333333"></path> <path d="M1708.99 207.314C1715.14 217.21 1718.4 228.631 1718.4 240.284C1718.4 251.938 1715.14 263.358 1708.99 273.255C1696.5 292.249 1628.43 364.903 1605.88 388.319C1586.41 408.55 1560.06 429.034 1533.94 429.034H993.214C920.009 429.034 915.656 404.06 915.656 348.338V121.118C915.656 64.0214 932.519 47.4102 982.605 47.4102H1535.22C1561.09 47.4102 1584.21 60.6533 1610.19 87.3917C1632.92 110.235 1700.07 193.818 1708.99 207.314Z" fill="#33CCCC"></path> <path d="M1038.44 135.277V133.902C1038.44 126.524 1038.44 119.398 1025.95 119.398H980.633C970.002 119.398 969.498 125.149 969.498 134.154V194.069C987.39 169.188 1011.05 149.015 1038.44 135.277Z" fill="white"></path> <path d="M1342.12 352.071V348.841V204.174C1342.12 143.64 1315.39 113.373 1261.93 113.373C1247.05 113.538 1232.52 117.864 1219.98 125.86C1206.11 134.514 1193.73 145.345 1183.32 157.937C1178.61 144.365 1169.46 132.784 1157.33 125.081C1143.56 117.48 1127.96 113.803 1112.24 114.45C1089.12 114.546 1066.68 122.279 1048.41 136.446C1044.42 140.432 969.34 198.904 969.34 259.85V352.415C969.34 355.302 967.828 366.529 980.452 366.529H1027.54C1042.15 366.529 1040.78 356.929 1040.78 352.919V202.936C1048.66 192.305 1064.77 166.964 1091.37 166.964C1095.63 166.57 1099.91 167.322 1103.78 169.143C1107.65 170.964 1110.96 173.788 1113.37 177.321C1118.71 187.988 1121.04 199.91 1120.1 211.803V328.655V352.621C1120.1 355.508 1118.61 366.735 1131.24 366.735H1177.82C1192.43 366.735 1191.06 357.135 1191.06 353.125V349.872V202.432C1199.56 191.824 1216.06 166.46 1241.65 166.46C1245.95 166.108 1250.28 166.876 1254.2 168.691C1258.11 170.506 1261.5 173.306 1264.01 176.817C1269.44 187.456 1271.82 199.391 1270.89 211.299V328.151V352.117C1270.89 355.004 1269.4 366.254 1282 366.254H1329.13C1343.86 365.452 1342.12 355.966 1342.12 352.071Z" fill="white"></path> <path d="M1601.8 293.37C1593.81 314.896 1579.15 333.305 1559.96 345.909C1540.77 358.514 1518.05 364.655 1495.12 363.435C1423.18 363.435 1375.2 314.472 1375.2 241.016C1375.2 167.559 1425.13 115.984 1492.63 115.984C1560.13 115.984 1605.06 162.771 1607.92 238.037C1607.92 247.66 1605.63 256.138 1593.44 256.138H1440.8C1441.79 296.486 1461.15 318.596 1495.63 318.596C1504.78 318.828 1513.81 316.436 1521.64 311.702C1529.48 306.968 1535.8 300.09 1539.85 291.88C1541.44 289.556 1543.59 287.665 1546.1 286.377C1548.61 285.089 1551.4 284.445 1554.22 284.503H1593.56C1595.64 284.403 1597.68 285.136 1599.23 286.541C1600.78 287.946 1601.7 289.908 1601.8 291.995C1601.82 292.578 1601.78 293.161 1601.69 293.736L1601.8 293.37ZM1492.88 162.771C1464.29 162.771 1444.92 182.636 1440.66 215.469H1543.1C1540.47 186.577 1524.98 162.588 1492.88 162.588V162.771Z" fill="white"></path> </svg> 