<?xml version="1.0" encoding="UTF-8"?>
<!-- The Best Svg Icon site in the world: iconSvg.co, Visit us! https://iconsvg.co -->
<svg fill="#000000" width="800px" height="800px" version="1.1" viewBox="144 144 512 512" xmlns="http://www.w3.org/2000/svg">
 <path d="m400 168.25c-58.191 0-105.8 47.605-105.8 105.8 0 58.191 47.605 105.8 105.8 105.8 58.191 0 105.8-47.605 105.8-105.8 0-58.191-47.605-105.8-105.8-105.8zm0 40.305c36.41 0 65.496 29.086 65.496 65.496s-29.086 65.496-65.496 65.496-65.496-29.086-65.496-65.496 29.086-65.496 65.496-65.496zm0 181.37c-109.83 0-196.48 100.85-196.48 221.68l-0.003906 0.003906c0 5.3438 2.125 10.469 5.9023 14.246 3.7812 3.7812 8.9062 5.9062 14.25 5.9062h352.67c5.3438 0 10.469-2.125 14.25-5.9062 3.7773-3.7773 5.9023-8.9023 5.9023-14.246 0-120.83-86.652-221.68-196.48-221.68zm0 40.305c79.156 0 145.66 69.441 154.45 161.22h-308.9c8.793-91.777 75.293-161.22 154.45-161.22z"/>
</svg>