<?xml version="1.0" encoding="UTF-8"?>
<!-- The Best Svg Icon site in the world: iconSvg.co, Visit us! https://iconsvg.co -->
<svg fill="#000000" width="800px" height="800px" version="1.1" viewBox="144 144 512 512" xmlns="http://www.w3.org/2000/svg">
 <g>
  <path d="m462.68 237.44v29.273 70.309 85.164 73.062c0 11.609 0.097656 23.273 0 34.883 0 0.78906-0.050782 1.5234-0.097657 2.3125 0.24609-1.7227 0.49219-3.4922 0.6875-5.2148-0.19531 1.2305-0.49219 2.3633-0.88672 3.543 0.64063-1.5742 1.3281-3.1484 1.9688-4.7227-0.54297 1.2773-1.1797 2.4102-2.0156 3.543 1.0312-1.3281 2.0664-2.6562 3.1016-3.9844-0.73828 0.88672-1.5234 1.6719-2.4102 2.4102 1.3281-1.0312 2.6562-2.0664 3.9844-3.1016-1.082 0.83594-2.1641 1.4766-3.3945 2.0156 1.5742-0.64062 3.1484-1.3281 4.7227-1.9688-1.2773 0.49219-2.5078 0.83594-3.8359 1.0312 1.7227-0.24609 3.4922-0.49219 5.2148-0.6875-1.1797 0.097656-2.3125 0.097656-3.4922 0 1.7227 0.24609 3.4922 0.49219 5.2148 0.6875-1.2305-0.19531-2.3633-0.49219-3.4922-0.88672 1.5742 0.64062 3.1484 1.3281 4.7227 1.9688-2.6562-1.1328-5.1172-2.9023-7.5781-4.3789-5.0664-3.1016-10.086-6.1484-15.152-9.25-13.48-8.2148-26.914-16.434-40.395-24.648-7.6758-4.6758-15.352-9.3984-23.027-14.07-8.6602-5.3125-17.367-10.578-26.027-15.891-10.676-6.543-21.305-13.188-32.078-19.582-0.19531-0.097656-0.39453-0.24609-0.58984-0.34375-12.84-7.8242-29.617 2.3125-29.617 16.973v0.49219c6.543-6.543 13.137-13.137 19.68-19.68h-40.688-63.91c-5.3125 0-10.875 0.44141-16.188-0.14844 1.7227 0.24609 3.4922 0.49219 5.2148 0.6875-1.9688-0.29688-3.8359-0.78906-5.6562-1.5234 1.5742 0.64062 3.1484 1.3281 4.7227 1.9688-1.7695-0.78906-3.3945-1.7695-4.9219-2.9531 1.3281 1.0312 2.6562 2.0664 3.9844 3.1016-1.3281-1.082-2.5078-2.2617-3.5898-3.5898 1.0312 1.3281 2.0664 2.6562 3.1016 3.9844-1.1797-1.5234-2.1641-3.1992-2.9023-4.9688 0.64062 1.5742 1.3281 3.1484 1.9688 4.7227-0.73828-1.8203-1.2305-3.7383-1.5234-5.707 0.24609 1.7227 0.49219 3.4922 0.6875 5.2148-0.44141-3.9375-0.14844-8.0195-0.14844-11.957v-24.355-55.352c0-4.7227-0.34375-9.5938 0.14844-14.316-0.24609 1.7227-0.49219 3.4922-0.6875 5.2148 0.29688-1.9688 0.78906-3.8359 1.5234-5.707-0.64063 1.5742-1.3281 3.1484-1.9688 4.7227 0.78906-1.7695 1.7695-3.4453 2.9023-4.9688-1.0312 1.3281-2.0664 2.6562-3.1016 3.9844 1.2305-1.5234 2.5586-2.8555 4.082-4.0352-1.3281 1.0312-2.6562 2.0664-3.9844 3.1016 1.3789-1.0312 2.8555-1.8711 4.4297-2.5586-1.5742 0.64062-3.1484 1.3281-4.7227 1.9688 1.8203-0.73828 3.6914-1.2773 5.6562-1.5742-1.7227 0.24609-3.4922 0.49219-5.2148 0.6875 4.4297-0.49219 9.0547-0.14844 13.531-0.14844h27.945 64.453 14.809c-6.543-6.543-13.137-13.137-19.68-19.68v0.14844c0 14.66 16.777 24.848 29.617 16.973 9.1523-5.6094 18.301-11.219 27.504-16.828 10.281-6.2969 20.613-12.594 30.898-18.941 6.25-3.8359 12.547-7.6758 18.793-11.562 13.383-8.2148 26.766-16.434 40.195-24.699 8.3164-5.1172 16.582-10.332 24.945-15.301 0.78906-0.49219 1.625-0.88672 2.4609-1.2773-1.5742 0.64062-3.1484 1.3281-4.7227 1.9688 1.1328-0.44141 2.3125-0.73828 3.4922-0.88672-1.7227 0.24609-3.4922 0.49219-5.2148 0.6875 1.1797-0.14844 2.3125-0.14844 3.4922 0-1.7227-0.24609-3.4922-0.49219-5.2148-0.6875 1.3281 0.19531 2.6094 0.54297 3.8867 1.0312-1.5742-0.64062-3.1484-1.3281-4.7227-1.9688 1.2305 0.54297 2.3633 1.1797 3.4453 2.0156-1.3281-1.0312-2.6562-2.0664-3.9844-3.1016 0.88672 0.73828 1.6719 1.5234 2.4102 2.4102-1.0312-1.3281-2.0664-2.6562-3.1016-3.9844 0.83594 1.082 1.5234 2.2617 2.0664 3.543-0.64062-1.5742-1.3281-3.1484-1.9688-4.7227 0.44141 1.1797 0.73828 2.3125 0.93359 3.543-0.24609-1.7227-0.49219-3.4922-0.6875-5.2148-0.054688 0.5-0.003906 1.1406-0.003906 1.7812 0.097656 5.1172 2.1172 10.281 5.7578 13.922 3.3945 3.3945 9.0039 6.0039 13.922 5.7578 10.48-0.49219 19.926-8.6602 19.68-19.68-0.24609-12.102-6.1992-22.387-16.188-29.078-4.8711-3.2461-10.578-4.5742-16.285-5.0664-5.0195-0.44141-9.9883 0.6875-14.562 2.6094-3.9844 1.6719-7.3789 3.8359-11.07 6.1016-13.578 8.3164-27.109 16.629-40.688 24.992-11.609 7.1328-23.223 14.27-34.832 21.402-7.625 4.6758-15.301 9.3477-22.926 14.07-12.301 7.5273-24.699 14.957-36.898 22.633-0.24609 0.14844-0.49219 0.29688-0.73828 0.44141 9.8906 5.6562 19.73 11.316 29.617 16.973v-0.14844c0-10.629-9.0039-19.68-19.68-19.68h-27.059-52.691-36.652c-11.609 0-23.172 3.9375-31.242 12.645-7.332 7.8711-11.465 17.957-11.609 28.781v2.3633 41.328 48.215c0 3-0.050781 6.0039 0 9.0039 0.19531 10.727 4.3789 20.91 11.855 28.633 7.4297 7.7227 17.711 11.809 28.34 12.348 9.0547 0.44141 18.203 0.050782 27.258 0.050782h52.84 37.098 1.9688c10.629 0 19.68-9.0039 19.68-19.68v-0.49219c-9.8906 5.6562-19.73 11.316-29.617 16.973 14.859 9.0547 29.719 18.156 44.574 27.207 9.1992 5.6094 18.352 11.219 27.551 16.828 18.5 11.266 36.949 22.582 55.449 33.852 4.9219 3 9.8398 6.1016 14.809 9.0547 8.3633 4.9688 19.238 6.6914 28.488 3.1484 7.7227-2.9531 13.676-7.4766 18.254-14.414 3.4453-5.2148 4.9688-11.809 5.0664-17.957 0.14844-6.8867 0-13.777 0-20.613v-50.824-67.012-68.633-55.742-28.93-1.3281c0-10.281-9.0547-20.172-19.68-19.68-10.785 0.4375-19.789 8.6055-19.789 19.625z"/>
  <path d="m281.18 450.92c-2.5586 13.285-5.1641 26.566-7.7227 39.902-4.082 21.059-8.168 42.066-12.203 63.125-0.6875 3.4453-1.3281 6.8398-2.0156 10.281-0.29688 1.5742-0.49219 3.2969-1.082 4.8203 0.64062-1.5742 1.3281-3.1484 1.9688-4.7227-0.19531 0.39453-0.39453 0.73828-0.6875 1.082 1.0312-1.3281 2.0664-2.6562 3.1016-3.9844-0.24609 0.34375-0.58984 0.58984-0.93359 0.83594 1.3281-1.0312 2.6562-2.0664 3.9844-3.1016-0.34375 0.24609-0.6875 0.44141-1.082 0.58984 1.5742-0.64062 3.1484-1.3281 4.7227-1.9688-0.39453 0.14844-0.78906 0.24609-1.2305 0.34375 1.7227-0.24609 3.4922-0.49219 5.2148-0.6875-7.7227 0.49219-15.598 0.050781-23.371 0.050781h-36.164c-2.9531 0-6.0039 0.14844-8.9531-0.050781 1.7227 0.24609 3.4922 0.49219 5.2148 0.6875-0.44141-0.050781-0.83594-0.14844-1.2305-0.34375 1.5742 0.64062 3.1484 1.3281 4.7227 1.9688-0.39453-0.14844-0.73828-0.34375-1.082-0.64062 1.3281 1.0312 2.6562 2.0664 3.9844 3.1016-0.34375-0.24609-0.64063-0.54297-0.88672-0.83594 1.0312 1.3281 2.0664 2.6562 3.1016 3.9844-0.24609-0.34375-0.49219-0.6875-0.6875-1.0312 0.64062 1.5742 1.3281 3.1484 1.9688 4.7227-0.19531-0.39453-0.29688-0.78906-0.39453-1.1797 0.24609 1.7227 0.49219 3.4922 0.6875 5.2148-0.097656-0.6875-0.097656-1.2305 0-1.9688-0.24609 1.7227-0.49219 3.4922-0.6875 5.2148 2.5078-12.988 5.0195-25.977 7.5273-38.918 3.9844-20.566 7.9688-41.18 11.957-61.746 0.93359-4.7227 1.8203-9.4961 2.7539-14.219-6.3477 4.8203-12.645 9.6445-18.992 14.465h67.895 9.543c10.281 0 20.172-9.0547 19.68-19.68-0.49219-10.676-8.6602-19.68-19.68-19.68h-67.895-9.543c-4.3789 0-8.5117 1.5742-11.906 4.2305-3.1484 2.4609-6.25 6.1484-7.0352 10.234-3.9844 20.664-8.0195 41.379-12.004 62.043-2.5586 13.285-5.1172 26.52-7.7227 39.805-0.73828 3.6914-1.4258 7.3789-2.1641 11.07-0.14844 0.64062-0.24609 1.2773-0.39453 1.918-0.88672 4.7734-1.2305 8.9531 0.39453 13.676 2.8047 8.168 9.1523 14.465 17.664 16.582 4.5273 1.1328 9.543 0.73828 14.168 0.73828h20.121 37.098c2.9531 0 5.8555-0.24609 8.7578-1.082 8.168-2.3125 15.105-9.4961 16.926-17.809 0.54297-2.5586 0.98437-5.1172 1.4766-7.6758 2.3633-12.102 4.6758-24.207 7.0352-36.309 4.5742-23.715 9.1992-47.477 13.777-71.191 0.097656-0.44141 0.19531-0.88672 0.24609-1.3281 1.0312-5.2656 0.78906-10.43-1.9688-15.152-2.4102-4.082-7.0859-7.9688-11.758-9.0547-5.0195-1.1328-10.676-0.88672-15.152 1.9688-4.1406 2.6016-8.0781 6.7344-9.0625 11.703z"/>
  <path d="m522.66 348.09c2.3633 2.3633 4.5742 4.8711 6.6406 7.5273-1.0312-1.3281-2.0664-2.6562-3.1016-3.9844 4.082 5.3633 7.4766 11.168 10.137 17.367-0.64062-1.5742-1.3281-3.1484-1.9688-4.7227 2.6094 6.2969 4.3789 12.891 5.3125 19.633-0.24609-1.7227-0.49219-3.4922-0.6875-5.2148 0.88672 6.9375 0.88672 13.922 0 20.859 0.24609-1.7227 0.49219-3.4922 0.6875-5.2148-0.93359 6.7422-2.707 13.332-5.3125 19.633 0.64062-1.5742 1.3281-3.1484 1.9688-4.7227-2.6562 6.1992-6.0039 12.055-10.137 17.367 1.0312-1.3281 2.0664-2.6562 3.1016-3.9844-2.0664 2.6562-4.2812 5.1641-6.6406 7.5273-7.2305 7.332-7.8711 20.613 0 27.848 7.8242 7.1836 20.074 7.8242 27.848 0 13.578-13.676 23.617-31.785 26.766-50.922 1.5742-9.4961 2.2617-18.895 1.0312-28.438-0.73828-5.5586-1.5234-11.07-3.1016-16.48-1.5234-5.2656-3.6406-10.332-5.9023-15.254-4.5273-9.8906-11.219-18.992-18.895-26.715-7.2305-7.332-20.664-7.8242-27.848 0-7.1328 7.9648-7.6719 20.066 0.10156 27.891z"/>
  <path d="m566.84 303.91c4.2305 4.2305 8.168 8.7578 11.855 13.48-1.0312-1.3281-2.0664-2.6562-3.1016-3.9844 7.3789 9.5938 13.48 20.023 18.203 31.191-0.64062-1.5742-1.3281-3.1484-1.9688-4.7227 4.8203 11.512 8.1172 23.617 9.7891 36.016-0.24609-1.7227-0.49219-3.4922-0.6875-5.2148 1.625 12.301 1.625 24.746 0 37.047 0.24609-1.7227 0.49219-3.4922 0.6875-5.2148-1.6719 12.398-4.9688 24.453-9.7891 36.016 0.64062-1.5742 1.3281-3.1484 1.9688-4.7227-4.7227 11.121-10.824 21.598-18.203 31.191 1.0312-1.3281 2.0664-2.6562 3.1016-3.9844-3.6914 4.7227-7.625 9.1992-11.855 13.48-7.2812 7.332-7.8242 20.613 0 27.848 7.8242 7.1836 20.074 7.8242 27.848 0 22.73-22.828 38.867-52.793 44.23-84.625 2.6094-15.598 3.4453-31.242 1.4258-46.938-1.1328-8.707-2.5586-17.32-5.0195-25.781-2.4102-8.3164-5.6562-16.383-9.25-24.254-7.5781-16.531-18.547-31.684-31.34-44.527-7.2812-7.332-20.664-7.8242-27.848 0-7.2773 7.7734-7.8203 19.926-0.046874 27.699z"/>
  <path d="m462.68 237.44v29.273 70.309 85.164 73.062c0 11.609 0.097656 23.273 0 34.883 0 0.78906-0.050782 1.5234-0.14844 2.3125 0.24609-1.7227 0.49219-3.4922 0.6875-5.2148-0.19531 1.2305-0.49219 2.4102-0.93359 3.5898 0.64062-1.5742 1.3281-3.1484 1.9688-4.7227-0.54297 1.2773-1.2305 2.4609-2.1172 3.5898 1.0312-1.3281 2.0664-2.6562 3.1016-3.9844-0.73828 0.88672-1.5742 1.7227-2.5078 2.4102 1.3281-1.0312 2.6562-2.0664 3.9844-3.1016-0.93359 0.6875-1.918 1.2773-3 1.7695 1.5742-0.64062 3.1484-1.3281 4.7227-1.9688-1.2773 0.54297-2.5586 0.88672-3.8867 1.082 1.7227-0.24609 3.4922-0.49219 5.2148-0.6875-1.1797 0.14844-2.3633 0.14844-3.543 0.050781 1.7227 0.24609 3.4922 0.49219 5.2148 0.6875-1.4766-0.19531-2.8047-0.58984-4.1328-1.1328 1.5742 0.64062 3.1484 1.3281 4.7227 1.9688-3.2461-1.5234-6.2969-3.7383-9.3984-5.6094-6.5938-4.0352-13.188-8.0703-19.828-12.102-15.254-9.3477-30.504-18.648-45.707-27.996-3.4922-2.1641-7.0352-4.2812-10.527-6.4453 3.2461 5.6562 6.4961 11.316 9.7422 16.973v-21.402-51.363-62.141-53.727c0-8.707 0.19531-17.465 0-26.176v-0.39453c-3.2461 5.6562-6.4961 11.316-9.7422 16.973 9.5938-5.9023 19.238-11.809 28.832-17.762 15.105-9.2969 30.207-18.547 45.312-27.848 3.8359-2.3633 7.6758-5.2148 11.809-6.9883-1.5742 0.64062-3.1484 1.3281-4.7227 1.9688 1.1328-0.44141 2.2617-0.73828 3.4922-0.88672-1.7227 0.24609-3.4922 0.49219-5.2148 0.6875 1.1797-0.14844 2.3125-0.14844 3.4922 0-1.7227-0.24609-3.4922-0.49219-5.2148-0.6875 1.3281 0.19531 2.6094 0.54297 3.8359 1.0312-1.5742-0.64062-3.1484-1.3281-4.7227-1.9688 1.2305 0.54297 2.3633 1.1797 3.3945 2.0156-1.3281-1.0312-2.6562-2.0664-3.9844-3.1016 0.88672 0.73828 1.6719 1.5234 2.4102 2.4102-1.0312-1.3281-2.0664-2.6562-3.1016-3.9844 0.83594 1.082 1.4766 2.2617 2.0156 3.543-0.64062-1.5742-1.3281-3.1484-1.9688-4.7227 0.44141 1.1797 0.73828 2.3125 0.88672 3.543-0.24609-1.7227-0.49219-3.4922-0.6875-5.2148 0.19922 0.75391 0.25 1.3945 0.25 2.0352 0.097656 5.1172 2.1172 10.281 5.7578 13.922 3.3945 3.3945 9.0039 6.0039 13.922 5.7578 10.48-0.49219 19.926-8.6602 19.68-19.68-0.24609-12.102-6.1484-22.387-16.137-29.078-4.8203-3.2461-10.578-4.5742-16.285-5.0664-5.0195-0.44141-9.9883 0.6875-14.562 2.6094-3.9844 1.6719-7.3789 3.8359-11.07 6.1016-13.531 8.3164-27.109 16.629-40.641 24.992-11.609 7.1328-23.172 14.27-34.785 21.402-2.8047 1.7227-5.2656 3.4453-7.3789 6.1992-2.8555 3.7383-4.1836 8.168-4.2305 12.84-0.050781 2.6562 0 5.3633 0 8.0195v35.57 50.773 53.629 44.082c0 7.1836-0.14844 14.414 0 21.598 0.14844 7.2812 3.5898 13.629 9.7891 17.562 0.83594 0.54297 1.7227 1.082 2.6094 1.5742 4.8711 2.9531 9.6914 5.9531 14.562 8.9062 14.809 9.0547 29.617 18.156 44.43 27.207 5.6094 3.4453 11.266 6.8867 16.875 10.332 4.7734 2.9023 9.543 6.1016 15.203 7.1328 11.512 2.1172 23.273-0.6875 31.684-9.1992 6.3945-6.4453 9.7422-15.105 9.8906-24.156v-3.9844-24.648-41.477-51.168-54.316-50.922-40.297-23.172-3.1016c0-10.281-9.0547-20.172-19.68-19.68-10.629 0.54688-19.633 8.7148-19.633 19.734z"/>
 </g>
</svg>